# xmcd
#
# Track frame offsets: 
#        150
#        18221
#        34289
#        53484
#        71360
#        89356
#        107192
#        131421
#        154079
#        171849
#        189875
#        209332
#        231144
#
# Disc length: 3357 seconds
#
# Revision: 4
# Processed by: cddbd v1.5.2PL0 Copyright (c) Steve Scherf et al.
# Submitted via: ExactAudioCopyFreeDBPlugin 1.0
#
DISCID=a20d1b0d
DTITLE=雷婷 - DTS51放手去爱
DYEAR=2010
DGENRE=DTS
TTITLE0=一定要爱你
TTITLE1=遇见你
TTITLE2=我一直站在被你伤害的地方
TTITLE3=错过的情人
TTITLE4=藕断丝连
TTITLE5=不是因为寂寞才想你
TTITLE6=挪威森林
TTITLE7=凉山的月亮
TTITLE8=你的承诺
TTITLE9=放手去爱
TTITLE10=最远的你是我最近的爱
TTITLE11=谢谢你让我这么爱你
TTITLE12=蓝月亮
EXTD=
EXTT0=
EXTT1=
EXTT2=
EXTT3=
EXTT4=
EXTT5=
EXTT6=
EXTT7=
EXTT8=
EXTT9=
EXTT10=
EXTT11=
EXTT12=
PLAYORDER=
